<?xml version="1.0" encoding="UTF-8"?> <!-- Generator: Adobe Illustrator 21.1.0, SVG Export Plug-In . SVG Version: 6.00 Build 0) --> <svg xmlns="http://www.w3.org/2000/svg" xmlns:xlink="http://www.w3.org/1999/xlink" id="Слой_1" x="0px" y="0px" viewBox="0 0 347.7 347.7" style="enable-background:new 0 0 347.7 347.7;" xml:space="preserve"> <style type="text/css"> .st0{opacity:0.2;} .st1{fill:#CD9174;} </style> <title>mandalaРесурс 1</title> <g id="Слой_2"> <g id="Layer_1"> <g class="st0"> <path class="st1" d="M9.5,140.8c3.1-0.6,5.6-2.4,8.1-4.3c4.2-3.3,8.3-6.7,12.5-9.8c4.5-3.4,9.8-5.5,15.5-5.9 c-0.1-0.2-0.2-0.4-0.3-0.6c-3.6-4.4-5.8-9.7-6.5-15.3c-0.8-4.9-1.2-9.8-1.8-14.7c-0.3-3-0.7-6-2.3-8.6c-0.3-0.5-0.3-1.1,0.4-1 c3.8,0.6,7.2-0.8,10.7-1.7c4.7-1.3,9.4-2.6,14.2-3.9c0.4-0.1,0.8-0.5,0.9-0.8c0.5-3,0.9-5.9,1.2-8.9c0-0.9-0.1-1.8-0.3-2.7 c-0.2-0.8,0-1,0.8-0.8c4,1,7.8-0.2,11.7-0.9c0.3,0,0.6-0.5,0.7-0.8c1.6-5.8,3.2-11.6,4.8-17.5c0.8-2.4,1.1-4.9,0.8-7.4 c-0.1-0.7,0.3-1,0.8-0.6c3.5,2.1,7.5,2.2,11.3,2.6c6,0.6,12,1,17.8,2.8c3.7,1.1,7.2,3,10.1,5.6c0.2-1.2,0.3-2.3,0.5-3.4 c1.1-5.6,3.9-10.4,7.4-14.9c2.6-3.5,5.5-6.8,8.2-10.2c1.8-2.3,3.5-4.7,4.1-7.6h0.7c0.5,0.8,1.1,1.5,1.8,2.1 c1.7,1.3,3.5,2.5,5.3,3.6c4.9,2.8,9.8,5.6,14.7,8.3c0.3,0.2,0.7,0.2,1,0.1c2.6-2,5.2-4,7.8-6.1c0.6-0.7,1.2-1.4,1.7-2.2 c0.6,0.9,1.2,1.7,2,2.5c2.4,2,5,3.9,7.5,5.8c0.2,0.2,0.9,0,1.3-0.2c2.4-1.4,4.8-2.9,7.2-4.3c3.3-1.8,6.6-3.5,9.8-5.4 c1.9-1,3.5-2.4,4.6-4.2h0.5c1.7,5.7,6,9.7,9.6,14.2s7.1,9,9,14.4c0.8,2.4,1.3,4.9,1.8,7c2.4-1.3,4.9-3,7.6-4.1 c4.8-2.1,10-2.8,15.3-3.3c3.7-0.4,7.4-0.7,11-1.3c1.7-0.4,3.4-1,5-1.7c0.3-0.1,0.6-0.2,0.9-0.3c0.1,0.2,0.2,0.3,0.2,0.4 c-0.5,4.1,0.9,7.8,2,11.6c1.3,4.5,2.5,9.1,3.8,13.7c0.2,0.4,0.6,0.7,1,0.8c3.8,0.7,7.6,1.8,11.6,0.8c0.1,0,0.6,0.5,0.6,0.7 c-0.9,3.9,0.1,7.7,0.9,11.5c0.1,0.4,0.4,0.8,0.8,1c5.3,1.5,10.7,3,16,4.5c2.9,0.8,5.8,1.7,8.9,1.2c0.6-0.1,1,0.1,0.6,0.7 c-2.5,4.2-2.3,9-2.8,13.7c-0.6,6-1.1,12.1-3.5,17.7c-1.2,2.8-2.9,5.3-4.3,8c0.8,0.1,1.9,0.2,2.9,0.4c4.5,0.9,8.6,2.8,12.3,5.5 c3.8,2.8,7.5,5.8,11.2,8.7c2.7,2.2,5.4,4.5,8.9,5.3c0.1,0,0.3,0.2,0.4,0.3v0.2c-2.8,2-4.5,4.9-6.1,7.8c-2.6,4.7-5.3,9.4-8,14.2 c-0.2,0.3-0.2,0.7-0.1,1c2.2,3.3,4.2,6.7,7.6,8.9c0.2,0.2,0.4,0.4,0.5,0.6c-1,0.6-1.8,1.4-2.6,2.2c-1.9,2.3-3.7,4.7-5.5,7.2 c-0.2,0.5-0.1,1,0.2,1.4c1.3,2.2,2.7,4.4,4,6.7c2.1,3.7,4,7.5,6.2,11.1c0.9,1.5,2.5,2.6,3.7,3.8v0.5c-5.6,1.6-9.5,5.8-13.8,9.3 c-4.6,3.7-9.2,7.4-14.9,9.4c-2.3,0.8-4.8,1.3-7.3,1.9c0-0.1,0,0,0,0c4.3,4.9,6.1,10.9,7,17.1c0.7,5.1,1,10.2,1.8,15.3 c0.5,2.2,1.2,4.4,2,6.5c0.1,0.2,0.1,0.4,0.2,0.6c-0.2,0.1-0.4,0.2-0.5,0.2c-3.7-0.5-7.2,0.6-10.6,1.7c-4.9,1.4-9.8,2.7-14.6,4 c-0.4,0.1-0.6,0.4-0.8,0.8c-0.7,3.8-1.8,7.6-0.9,11.6c0.2,0.8-0.1,0.9-0.9,0.8c-4-0.9-7.8,0.2-11.6,0.9c-0.3,0.1-0.6,0.4-0.7,0.7 c-1.5,5.4-3,10.9-4.5,16.3c-1,2.8-1.4,5.8-1.2,8.8c0,0.2,0,0.4-0.1,0.6c-0.2,0-0.4,0.1-0.5,0c-3.4-2.1-7.3-2.3-11.1-2.6 c-5.8-0.6-11.7-1-17.3-2.6c-4.1-1.1-7.9-3.1-11.1-5.9c-0.2,1.2-0.3,2.1-0.5,3.1c-1,5.8-4,10.7-7.5,15.3c-1.6,2.1-3.3,4.2-5,6.3 c-2.9,3.6-6.1,6.9-7.4,11.5h-0.5c-1.3-2.4-3.5-3.7-5.7-5c-5.4-3.1-10.8-6.1-16.2-9.2c-0.3-0.2-0.7-0.2-1,0 c-3.3,2.2-6.8,4.2-9,7.8c-0.1,0.1-0.3,0.2-0.4,0.3c-0.1-0.1-0.3-0.1-0.3-0.1c-2.2-3.5-5.7-5.5-8.9-7.8c-0.4-0.2-0.9-0.2-1.3,0 c-5.1,2.8-10.1,5.7-15.2,8.5c-2.7,1.3-5,3.2-6.9,5.5h-0.3c-0.3-1-0.7-1.9-1.2-2.8c-1.6-2.4-3.2-4.8-4.9-7.1c-3-4-6.1-7.7-9-11.8 c-3-4.2-4.9-9.2-5.2-14.4c-0.2,0-0.3,0-0.4,0.1c-4.9,4.2-10.8,6-17,7c-5.1,0.7-10.3,1.1-15.4,1.8c-2.2,0.5-4.3,1.1-6.3,2 c-0.7,0.2-1.1,0.3-1-0.5c0.5-3-0.4-5.9-1.2-8.8c-1.5-5.4-3-10.8-4.5-16.1c-0.1-0.4-0.4-0.7-0.8-0.8c-3.8-0.7-7.6-1.8-11.6-0.9 c-0.7,0.2-0.9-0.1-0.8-0.8c1-4-0.2-7.8-0.9-11.7c0-0.3-0.4-0.6-0.7-0.7c-5.3-1.5-10.6-3-15.9-4.4c-3-0.8-6-1.6-9.1-1.2 c-0.2,0-0.4,0-0.6-0.1c0-0.2-0.1-0.4,0-0.5c2.2-3.6,2.2-7.8,2.7-11.8c0.5-4.6,1.1-9.2,1.9-13.7c0.8-5.1,3-9.8,6.4-13.7 c-2.5-0.6-5-1.1-7.4-1.9c-5.3-1.9-9.8-5.2-14.1-8.8c-2-1.6-4-3.3-6-5c-2.5-2.2-5.3-3.9-8.5-4.9v-0.5c2.3-1.4,3.7-3.6,5-5.8 c3.1-5.3,6.1-10.7,9.1-16.1c0.1-0.3,0.1-0.6,0-0.9c-2.3-3.3-4.2-6.8-7.8-9c-0.2-0.1-0.3-0.3-0.5-0.6c0.9-0.6,1.8-1.3,2.6-2.1 c1.8-2.2,3.5-4.5,5.3-6.7c0.5-0.6,0.5-1.4,0-2c-1.5-2.4-3-4.9-4.4-7.4c-2-3.5-3.9-7.2-6-10.6c-0.8-1.3-2.2-2.2-3.4-3.3L9.5,140.8 z M107.3,250.9c0.2,2,0.3,3.9,0.6,5.9c3.1,18.2,20,30.8,38.4,28.4c12.1-1.6,20.8-8.4,26.7-18.9c0.3-0.4,0.6-0.7,0.9-1 c0.3,0.3,0.6,0.7,0.9,1.1c6.2,11,15.3,17.9,28.1,19c10.6,1.1,21.1-2.9,28.1-10.9c9.2-10,11.2-21.7,7.6-34.6 c-0.1-0.5-0.1-0.9-0.1-1.4c0.4,0,0.9,0,1.3,0.1c5.4,1.7,11.1,2.1,16.7,1.3c19.9-3,33.2-23.3,27.9-42.8 c-2.8-10.1-9.1-17.4-18.2-22.3c-0.3-0.2-0.6-0.5-0.9-0.9c0.3-0.3,0.5-0.5,0.9-0.8c3.5-1.9,6.7-4.2,9.5-7.1 c13.5-13.6,13.1-36.3-1-49.2c-10.1-9.3-21.9-11.4-35-7.6c-0.4,0.1-0.8,0.1-1.3,0c0-0.4,0-0.8,0.1-1.2c1.7-5.4,2.1-11.1,1.3-16.7 c-3-18.8-20.6-31.6-39.4-28.7c-0.9,0.1-1.7,0.3-2.6,0.5c-10.5,2.6-18,9-23.2,18.4c-0.2,0.3-0.5,0.7-0.9,0.9 c-0.3-0.3-0.5-0.6-0.8-0.9c-1.8-3.5-4.1-6.7-6.9-9.5c-14.1-14.1-37.9-13-50.5,2.4c-8.1,9.9-9.8,21.2-6.4,33.3 c0.1,0.5,0.1,0.9,0.1,1.4c-0.5,0-0.9-0.1-1.4-0.2c-6-1.9-12.3-2.2-18.4-0.9c-18.3,3.9-30.1,21.8-26.6,40.2 c2.2,11.2,8.8,19.2,18.6,24.7c0.4,0.2,0.7,0.5,1,0.8c-0.3,0.3-0.6,0.6-1,0.8c-3.5,1.9-6.7,4.3-9.5,7.2 c-13.4,13.6-13,36.2,1.2,49.1c10,9.2,21.8,11.3,34.7,7.6c0.5-0.1,0.9-0.1,1.4-0.1c0,0.5,0,0.9-0.1,1.4 C108,243.4,107.4,247.2,107.3,250.9z M284.3,284.6c0.2-2.4,0.2-4.8,0.6-7.1c1.4-8.2,3.5-16.3,3.9-24.7c0.4-8.6-0.6-16.9-4.5-24.7 c-0.8-1.5-1.7-2.9-2.6-4.6c-2.4,4.2-5.7,7.9-9.5,10.8c-3.9,2.9-8.3,4.9-13,6c4.7,9.4,8.2,19.4,10.7,29.6 c-10.2-2.5-20.1-6.1-29.6-10.7c-2.2,9.5-8.3,17.6-16.7,22.5c0.9,0.6,1.7,1.1,2.6,1.6c7.1,4.1,14.8,5.6,22.9,5.6 c7,0,13.9-1.2,20.8-2.5C274.6,285.4,279.4,284.1,284.3,284.6L284.3,284.6z M88.4,107.3c-0.1-0.3-0.2-0.6-0.3-0.8 c-2-4.7-4.1-9.3-5.9-14.1c-1.6-4.3-2.8-8.8-4.1-13.2c-0.4-1.3-0.2-1.5,1.2-1.2l0.4,0.1c8.6,2.3,17.1,5.3,25.1,9.1l2.6,1.2 c2.2-9.5,8.3-17.6,16.7-22.4c-0.5-0.4-1.1-0.8-1.6-1.1c-3-1.6-6.2-3-9.4-4.2c-9-2.8-18.3-2.3-27.5-0.9C78,60.9,70.8,63.5,63,63.1 c0.5,4.2-0.5,8.2-1.3,12.2c-1.4,7-2.8,14-3,21.2c-0.2,7.5,0.7,14.8,3.9,21.7c0.9,2,2.1,3.9,3.2,6 C70.7,115.7,78.9,109.6,88.4,107.3z M107.4,259.2c-0.4,0.1-0.7,0.3-1,0.4c-8.6,4.2-17.7,7.5-26.9,9.9c-1.5,0.4-1.8,0.2-1.3-1.3 c1.6-5,3-10.1,4.8-15c1.6-4.4,3.5-8.6,5.4-12.9C78.9,238,70.8,232,66,223.6c-0.3,0.5-0.6,0.8-0.8,1.1c-3.5,5.7-5.7,12.1-6.2,18.8 c-0.8,7.7,0.2,15.3,1.6,22.8c1.1,6,3,11.9,2.5,17.9c2.9,0.3,5.8,0.4,8.6,0.9c7.7,1.4,15.3,3.2,23.2,3.6c8.1,0.4,16-0.5,23.4-3.9 c2-0.9,3.9-2.1,6-3.2C115.7,276.9,109.6,268.7,107.4,259.2z M187.2,66.5c8.2-5.1,18.2-6.6,27.5-4.2c0-0.2,0.1-0.3,0.1-0.5 c0-0.3-0.1-0.6-0.2-0.8c-1.7-7.1-5.1-13.7-10.1-19.1c-5.3-6-11.7-10.7-18.3-15.1c-4.3-2.9-9-5.4-12.4-9.6 c-3.3,4.1-7.9,6.5-12,9.4s-8.2,5.7-12,8.9c-6.3,5.2-11.6,11.4-14.7,19.1c-1,2.4-1.7,5-2.5,7.5l0.3,0.3c4.6-1.2,9.5-1.4,14.2-0.8 c4.7,0.7,9.3,2.4,13.4,4.9c3.4-10,7.9-19.5,13.3-28.5C179.3,46.9,183.8,56.5,187.2,66.5z M284.6,63c-4.3,0.5-8.3-0.5-12.2-1.3 c-7.1-1.4-14.1-2.9-21.4-3c-7.5-0.2-14.8,0.8-21.7,4c-2,0.9-3.8,2-5.9,3.2c8.5,4.9,14.6,13,16.9,22.6c9.4-4.6,19.4-8.2,29.6-10.7 c-2.5,10.2-6.1,20.2-10.7,29.6c9.5,2.2,17.6,8.2,22.5,16.7c0.3-0.4,0.5-0.7,0.7-1c3.7-5.9,5.9-12.7,6.4-19.6 c0.6-7.4-0.3-14.7-1.6-22C286,75.3,284.1,69.4,284.6,63z M66.5,160.5c-5.1-8.2-6.6-18.2-4.2-27.6c-0.2,0-0.3,0-0.5,0 c-0.3,0-0.7,0.1-1,0.2c-8.2,1.9-14.9,6.1-20.9,11.9c-5.5,5.2-9.7,11.4-13.9,17.6c-2.7,4-5.1,8.2-9,11.4c2.9,2.2,4.8,5.1,6.8,8 c1.2,1.8,2.4,3.6,3.6,5.4c3.5,5.5,7.7,10.6,12.3,15.3c5.8,5.6,12.3,9.8,20.2,11.8c0.7,0.2,1.4,0.3,2.3,0.5 c-1.2-4.7-1.5-9.5-0.8-14.3c0.7-4.8,2.4-9.3,4.9-13.4c-10-3.4-19.6-7.9-28.6-13.4C46.9,168.3,56.5,163.9,66.5,160.5z M330.5,173.9c-1.2-1.3-2.5-2.5-3.5-3.8s-2-2.7-3-4.1c-1.4-2-2.8-4.1-4.1-6.1c-3.5-5.4-7.6-10.4-12.1-14.9 c-5.1-5.1-11.3-8.9-18.1-11.2c-1.4-0.4-2.7-0.7-4.3-1.1c2.5,9.4,1.1,19.5-4.1,27.8l1.3,0.5c9,3.2,17.7,7.2,25.9,12.1 c1.2,0.7,1.2,1,0,1.6c-7.5,4.5-15.4,8.2-23.6,11.2l-3.6,1.3c5.1,8.3,6.6,18.3,4.1,27.8c1.5-0.4,2.8-0.6,4.1-1 c9-2.7,16-8.3,22.1-15.2c4.5-5.1,8.2-10.9,12-16.6C325.5,179.2,327.5,176.1,330.5,173.9L330.5,173.9z M160.5,281.2 c-8.2,5.1-18.2,6.6-27.5,4.1c0,0.2-0.1,0.3-0.1,0.5c0,0.3,0.1,0.6,0.2,1c0.9,4,2.4,7.9,4.6,11.4c4.7,7.9,11.3,13.8,18.6,19.1 c5.9,4.4,12.7,7.6,17.5,13c2.3-1.8,4.4-3.7,6.7-5.4c1.1-0.9,2.4-1.6,3.6-2.4c6.7-4.4,13.3-8.9,18.8-14.8s9.6-12.2,11.6-19.9 c0.2-0.7,0.3-1.5,0.5-2.4c-4.7,1.2-9.5,1.5-14.3,0.8c-4.7-0.7-9.3-2.4-13.4-4.9l-0.4,1.1c-3.1,9-7.2,17.7-12,25.9 c-0.8,1.4-1,1.4-1.8,0.1c-4.5-7.6-8.3-15.6-11.4-23.9L160.5,281.2z M17.6,204.9l2.6,2.1c4,3.2,7.8,6.5,11.9,9.5 c6.7,4.8,14,7.6,22.5,6.1c0.3,0,0.6,0.2,0.8,0.3c-0.1,0.3-0.3,0.5-0.5,0.8c-1.3,1.2-2.8,2.2-4,3.5c-4,4.3-6.5,9.7-7.3,15.5 c-1,6.3-1.5,12.6-2.2,18.9c0,0.3,0.4,0.8,0.8,0.9c3.2,1.1,6.5,2.1,9.8,3.1c2.5,0.8,5,1.4,7.7,2.1c-0.1-0.6-0.1-0.9-0.1-1.2 c-1.4-7.4-2.3-14.9-1.6-22.5c0.5-7.4,2.9-14.5,7-20.7c0.4-0.4,0.4-1.1,0.1-1.6c-0.8-1.6-1.4-3.4-2.1-5c-0.2-0.5-0.7-0.8-1.2-1 c-7.1-1.5-13.7-4.7-19.2-9.4c-5.9-4.9-10.6-10.8-14.9-17.1c-0.2-0.4-0.5-0.7-1-1.3L17.6,204.9z M287.9,79.8c0,0.7,0,1,0.1,1.2 c0.6,4.5,1.4,9,1.7,13.5c0.8,10.7-1,20.8-7.1,30c-0.2,0.4-0.2,0.9,0,1.3c0.6,1.7,1.4,3.3,2,4.9c0.2,0.7,0.8,1.2,1.5,1.2 c3.8,0.7,7.5,2,10.9,3.9c6.7,3.7,12.6,8.7,17.2,14.8c2.3,2.9,4.4,5.8,6.8,9l9.1-16.9c-4.6-3.7-9.1-7.6-13.9-11 c-6.8-5-14.3-8.1-23.1-6.6c-0.3,0-0.6-0.2-0.9-0.3c0.2-0.3,0.4-0.6,0.6-0.8c1.4-1.3,2.9-2.4,4.1-3.7c3.9-4.3,6.3-9.7,7.1-15.5 c1-6.2,1.5-12.4,2.2-18.6c0-0.3-0.4-0.8-0.7-0.8c-1.7-0.6-3.4-1.1-5.1-1.6L287.9,79.8z M142.7,17.6c-3.7,4.6-7.4,8.9-10.9,13.6 c-5.1,6.9-8.3,14.5-6.8,23.4c0,0.3-0.1,0.6-0.2,0.9c-0.3-0.1-0.6-0.3-0.9-0.5c-1.2-1.3-2.3-2.8-3.6-4c-4.7-4.4-10.5-6.5-16.7-7.5 c-5.8-0.9-11.7-1.3-17.5-2c-0.7-0.1-0.9,0.3-1.1,0.8c-0.9,3.1-1.9,6.1-2.8,9.2c-0.8,2.7-1.5,5.4-2.3,8.3l1.2-0.1 c5.2-0.6,10.4-1.5,15.7-1.8c9.9-0.4,19.3,1.5,27.7,7.2c0.4,0.2,0.9,0.2,1.3,0c1.7-0.7,3.4-1.3,5-2.1c0.5-0.2,0.8-0.6,1-1.1 c1.5-7.2,4.8-13.8,9.6-19.4c4.7-5.5,10.2-10.3,16.3-14.3l2-1.4L142.7,17.6z M267.7,287.9c-0.6,0-0.9,0-1.2,0.1 c-4.5,0.6-9,1.4-13.4,1.7c-10.7,0.8-20.8-1-29.9-7.1c-0.4-0.2-0.8-0.2-1.2-0.1c-1.7,0.7-3.4,1.5-5.1,2.1c-0.6,0.2-1,0.7-1.1,1.3 c-0.8,4.5-2.4,8.7-4.7,12.6c-4.4,7.6-10.7,13.4-17.7,18.6c-1.6,1.2-3.3,2.4-5.3,3.8l17.1,9.2c4.2-5.4,8.6-10.6,12.4-16.2 c4.3-6.2,6.5-13.1,5.1-20.8c0-0.3,0.1-0.6,0.2-0.9c0.3,0.1,0.6,0.3,0.9,0.5c1.2,1.3,2.2,2.8,3.5,4c5.2,4.9,11.7,6.9,18.6,7.9 c5.2,0.7,10.5,1.1,15.7,1.7c0.8,0.1,0.9-0.3,1-0.8c0.9-2.9,1.8-5.8,2.7-8.7S266.9,291,267.7,287.9L267.7,287.9z M187.9,26.7 l1.7,1.2c5.4,3.6,10.4,7.7,14.8,12.4c5.7,6.2,9.8,13.2,11.4,21.5c0.2,0.5,0.5,0.9,1,1.1c1.6,0.7,3.3,1.3,4.9,2.1 c0.6,0.3,1.2,0.3,1.8-0.1c2.8-1.7,5.8-3.1,8.8-4.4c9.3-3.5,19-3.3,28.6-1.9c2.2,0.3,4.4,0.7,7,1.2l-5.6-18.4 c-1.8,0.2-3.5,0.3-5.1,0.5c-5.2,0.6-10.4,1-15.5,2c-7.3,1.4-13.6,4.8-18,11c-0.2,0.2-0.5,0.3-0.8,0.5c-0.2-0.3-0.3-0.6-0.3-0.9 c0.2-2.4,0.2-4.8,0.2-7.1c-0.4-4.8-2.2-9.3-5-13.1c-4.1-5.6-8.5-11-12.8-16.4c0,0-0.1,0-0.3-0.1L187.9,26.7z M159.5,321 c-3.7-2.9-7.3-5.5-10.7-8.3c-8.5-7.2-14.9-15.8-17.1-27c-0.1-0.4-0.5-0.8-0.9-1c-1.6-0.7-3.3-1.4-5-2.1c-0.5-0.3-1.2-0.3-1.7,0.1 c-3.2,2.2-6.7,3.9-10.4,5c-9.3,2.9-18.7,2.6-28.1,1.1c-1.8-0.3-3.7-0.6-5.6-1c0.1,0.6,0.2,1,0.3,1.4c1.6,5.4,3.2,10.9,4.9,16.3 c0.1,0.3,0.7,0.6,1.1,0.5c2.2-0.2,4.4-0.3,6.6-0.6c4.7-0.6,9.3-1,13.9-2c6.9-1.5,12.8-4.8,17.1-10.7c0.2-0.3,0.6-0.4,1-0.5 c0.1,0.4,0.2,0.7,0.2,1.1c-0.8,5.5,0.1,11.2,2.7,16.2c3.8,7.7,9.9,13.7,15.1,20.5L159.5,321z M320.9,188c-0.5,0.7-0.8,1-1,1.4 c-3.3,5-7.1,9.7-11.4,13.9c-6.5,6.2-13.8,10.8-22.7,12.5c-0.5,0.2-0.9,0.6-1.1,1.1c-0.7,1.6-1.3,3.3-2.1,4.9 c-0.3,0.5-0.3,1.2,0.1,1.7c2.5,3.7,4.3,7.7,5.4,12c2.4,8.8,2,17.8,0.6,26.7c-0.3,1.8-0.6,3.5-0.9,5.5c0.6-0.1,1.1-0.1,1.5-0.3 c5.4-1.6,10.8-3.2,16.2-4.8c0.3-0.2,0.6-0.6,0.6-1c-0.1-2.3-0.3-4.5-0.6-6.8c-0.6-4.6-1-9.3-2-13.8c-1.5-7-4.8-12.9-10.8-17.1 c-0.3-0.2-0.3-0.6-0.5-0.9c0.3-0.1,0.7-0.2,1-0.2c2.3,0.2,4.7,0.2,7,0.1c5.8-0.5,10.9-3,15.4-6.4c4.3-3.2,8.4-6.7,12.6-10.1 l1.7-1.4L320.9,188z M59.7,80.1c-0.5,0.1-1,0.2-1.4,0.3c-5.4,1.6-10.8,3.2-16.2,4.8c-0.8,0.2-0.7,0.6-0.6,1.2 c0.2,1.4,0.3,2.8,0.5,4.2c0.7,5.6,1.2,11.2,2.3,16.6c1.2,6.7,4.9,12.6,10.4,16.6c0.3,0.3,0.6,0.7,0.8,1.1 c-0.4,0.1-0.9,0.2-1.3,0.2c-5.1-0.8-10.4,0-15,2.3c-2.9,1.3-5.6,3-8.2,4.8c-4.5,3.4-8.9,7.1-13.3,10.6c3.2,5.6,5.7,11.4,9.2,16.6 c2.7-3.5,5.1-7,7.9-10.2c7.3-8.6,15.9-15.1,27.3-17.4c0.5-0.2,0.8-0.5,1-1c0.7-1.6,1.3-3.3,2.1-4.9c0.3-0.6,0.3-1.3-0.1-1.8 c-1.2-2-2.4-4-3.4-6.1c-4.1-9.4-4.4-19.3-3.1-29.2C58.7,85.9,59.3,83.1,59.7,80.1z M206.2,336.3c1.9-4.8,5.6-8.2,8.6-12.2 c2.3-3,4.6-6,6.7-9.2c2.7-4,4.3-8.8,4.4-13.7c0.1-0.3,0.2-0.6,0.3-0.9c0.3,0.1,0.6,0.2,0.9,0.4c0.9,0.7,1.7,1.5,2.6,2.1 c4.9,3.5,10.6,4.8,16.4,5.6c4.6,0.6,9.2,0.9,13.7,1.5c2,0.3,4,0.9,6,1.4c-0.1-3.5,1-6.8,2-10.2c1.1-3.6,2.1-7.2,3.1-10.8 c0.3-1.1,0.5-2.2,0.7-3.4c-0.7,0.1-1.5,0.3-2.2,0.5c-0.5,0.2-0.8,0.5-1,1c-1.8,6-3.5,12-5.3,18c-0.2,0.7-0.5,0.9-1.2,0.8 c-1.5-0.2-3.1-0.3-4.7-0.5c-4.9-0.6-9.8-0.9-14.6-1.8c-6.3-1.1-12-3.4-16.7-7.9c-0.7-0.7-1.4-1.4-2.1-2.1 c-0.2,2.5-0.2,4.9-0.6,7.2c-1,6-3.9,11.1-7.5,15.8c-3.3,4.4-6.9,8.5-10.3,12.8c-0.5,0.6-0.8,0.4-1.4,0.1 c-5.7-3.1-11.4-6.2-17.3-9.3l-2.4,1.6c1.6,1,3,1.9,4.4,2.7C194.6,329.3,201.1,331.5,206.2,336.3z M163.1,24.5 c-1.7-1.1-3.2-2-4.6-2.9c-5.6-3.4-12-5.6-17-10.3c-1.2,3.2-3.3,5.7-5.3,8.2c-2.9,3.7-5.9,7.3-8.7,11.1c-3.4,4.7-5.7,9.9-5.7,15.9 c0,0.3-0.2,0.7-0.3,0.7c-0.3,0-0.6-0.1-0.8-0.3c-0.9-0.7-1.7-1.5-2.6-2.1c-5.3-3.8-11.5-5-17.8-5.9c-6.1-0.8-12.4-0.6-18.1-2.7 c-0.7,3-1.2,6-2,9c-1.1,4-2.3,7.9-3.5,11.8c-0.3,1.1-0.5,2.3-0.7,3.6c0.7-0.1,1.5-0.2,2.2-0.4c0.5-0.2,0.8-0.5,1-1 c1.8-5.9,3.5-11.9,5.2-17.9c0.1-0.6,0.6-1,1.2-1c0.1,0,0.2,0,0.2,0c1.7,0.2,3.4,0.3,5.2,0.5c4.8,0.6,9.6,0.9,14.3,1.8 c6.1,0.9,11.8,3.6,16.3,7.9l2,2c0.2-2.4,0.2-4.9,0.6-7.3c1-5.7,3.8-10.7,7.3-15.2c3.5-4.5,7-8.6,10.4-13c0.5-0.6,0.9-0.5,1.5-0.1 c5.5,3,11,6,16.4,9c0.3,0.2,0.7,0.2,1,0.1C161.6,25.5,162.3,25,163.1,24.5z M294.7,123.7c2.2,0.1,4.2,0.1,6.2,0.3 c5.6,0.8,10.8,3,15.3,6.5c5,3.7,9.7,7.7,14.5,11.6c0.3,0.3,0.3,0.8,0.2,1.2c-3,5.5-6,11-9.1,16.6c-0.2,0.3-0.3,0.7-0.2,1 c0.5,0.8,0.9,1.5,1.5,2.2c0.4-0.5,0.6-0.8,0.8-1.2c2.1-3.8,4.3-7.5,6.3-11.3c1.7-3.2,3.4-6.4,6.1-9c-3.5-1.3-6.2-3.7-9-5.9 c-4.2-3.2-8.3-6.5-12.6-9.5c-4-2.8-8.7-4.3-13.6-4.3c-0.3-0.1-0.6-0.2-0.8-0.3c0.1-0.3,0.3-0.7,0.4-1c1.3-1.9,2.9-3.7,4-5.8 c2.3-4.1,3.1-8.6,3.7-13.2s0.9-9.2,1.5-13.7c0.3-2,0.9-4,1.4-6c-3.7,0.1-7.2-1.1-10.7-2.1c-4.1-1.2-8.2-2.3-12.4-3.4 c-0.4-0.1-0.9-0.2-1.3-0.2c0.1,0.8,0.3,1.5,0.5,2.3c0.1,0.4,0.4,0.6,0.8,0.8c6,1.8,11.9,3.5,17.9,5.2c0.9,0.3,1.2,0.7,1.1,1.6 c-0.5,4.8-0.9,9.5-1.5,14.2C304.7,109.1,302.1,117.4,294.7,123.7z M123.9,294.7c-0.2,0.1-0.4,0.2-0.5,0.3 c-4.4,5.1-10.1,7.9-16.5,9.5c-7,1.7-14.3,1.7-21.4,2.7c-0.7,0.1-0.9-0.3-1.1-0.9c-1.7-6-3.5-12-5.2-18c-0.1-0.3-0.3-0.8-0.6-0.8 c-0.9-0.2-1.8-0.4-2.6-0.5c0.4,1.7,0.6,3.1,1,4.5c1.3,4.7,2.8,9.4,4.1,14.1c0.4,1.9,0.8,3.8,1,5.7c1.4-0.5,2.9-0.9,4.3-1.1 c5.1-0.6,10.2-1.1,15.2-1.8c7-1,13.8-2.6,19.1-7.8c0.2-0.2,0.5-0.3,0.8-0.3c0.2,0.1,0.3,0.5,0.3,0.8c0.2,1.3,0.2,2.6,0.4,3.9 c1.1,5.9,4.4,10.8,7.9,15.5c3.9,5.1,8.8,9.5,11.5,15.7c2.5-2.7,5.7-4.3,8.8-6c3.6-2,7.1-3.9,10.7-5.9c0.7-0.4,1.3-0.9,2-1.4 c-0.6-0.5-1.3-0.9-2-1.3c-0.3-0.1-0.7-0.1-1.1,0c-5.1,2.7-10.1,5.5-15.2,8.3c-2.3,1.3-2.2,1.3-3.9-0.8c-3.2-3.9-6.5-7.8-9.6-11.8 c-3.8-4.9-6.6-10.4-7.4-16.6C123.8,298.8,123.8,296.8,123.9,294.7z M52.6,123.5c0-0.1-0.1-0.1-0.1-0.2c-4.9-4.1-7.6-9.5-9.2-15.6 c-1.9-7.3-2-14.9-2.8-22.4c0-0.3,0.5-0.8,0.8-0.9c6-1.8,12-3.5,18-5.3c0.4-0.1,0.7-0.3,0.9-0.7c0.2-0.8,0.4-1.7,0.5-2.5l-2.4,0.5 c-7.5,1.4-14.3,5.1-21.8,5.4c0.5,2.8,1.1,5.5,1.5,8.3c0.7,4.8,1,9.7,1.8,14.4c0.9,6,2.9,11.6,7.3,16c0.2,0.2,0.4,0.6,0.3,0.7 c-0.2,0.2-0.5,0.4-0.8,0.4c-2,0.2-4.1,0.6-6.1,1c-5.4,1.4-9.9,4.7-14.3,8.1c-4.8,3.7-9,8.2-14.7,10.7c5.7,6.3,8,14.7,13.2,21.4 c0.4-0.6,0.8-1.3,1.2-2c0.2-0.4,0.2-0.9,0-1.3c-3-5.5-6.1-11-9-16.6c-0.1-0.4-0.1-0.8,0.2-1.1c4-3.3,8-6.7,12.2-9.9 c4.5-3.5,9.3-6.4,14.9-7.6C46.9,123.9,49.8,123.8,52.6,123.5z M287.1,271.6c0.2,0,0.5,0,0.7,0c3.5-0.9,6.9-1.8,10.4-2.8 c4.3-1.2,8.5-3,13.1-3c0.1,0,0.2-0.1,0,0c-0.5-2.7-1.1-5.3-1.5-7.9c-0.6-4.4-0.9-8.8-1.5-13.1c-1-6.6-2.8-12.9-7.7-17.8 c-0.2-0.2-0.3-0.6-0.2-0.7c0.2-0.2,0.5-0.3,0.8-0.3c3.9-0.1,7.8-1.2,11.2-3c4.6-2.4,8.5-5.6,12.5-8.8c3-2.4,6.1-4.6,9.2-6.9 c0.6-0.4,1.2-0.7,1.9-0.9c-1.6-2.5-3.2-4.8-4.6-7.2c-2.4-4.2-4.7-8.4-7-12.6c-0.3-0.6-0.8-1.1-1.2-1.8c-0.5,0.6-0.9,1.3-1.3,2 c-0.2,0.3-0.2,0.7,0,1.1c2.7,5,5.4,9.9,8.1,14.8c1.4,2.6,1.4,2.6-0.9,4.4c-4.2,3.4-8.2,6.9-12.5,10c-6.2,4.6-13.1,7.4-21,6.9 c-0.2,0-0.4,0-0.5,0.1c0.1,0.2,0.3,0.3,0.4,0.5c4.2,3.7,7.2,8.5,8.6,13.9c2.4,7.8,2.3,16,3.3,24c0,0.4-0.3,0.7-0.6,0.9 c-5.5,1.7-11,3.4-16.5,4.9C287.5,268.9,287.5,268.8,287.1,271.6z M24.4,184.8c-1.1,1.8-2.2,3.6-3.3,5.4c-3.2,5.4-5.3,11.4-9.8,16 c4.8,1.9,8.1,5.5,12,8.5c3.1,2.3,6.1,4.7,9.4,6.9c4.1,2.7,8.8,4.3,13.7,4.4c0.3,0.1,0.6,0.2,0.9,0.3c-0.1,0.3-0.2,0.6-0.4,0.9 c-2.5,2.5-4.4,5.6-5.4,9c-0.9,3.1-1.7,6.3-2.3,9.6c-1.2,6.7-0.7,13.6-3,20c1.6,0.1,3.3,0.3,4.9,0.7c5,1.4,10,2.9,15.1,4.3 c1.4,0.4,2.9,0.7,4.5,1c-0.1-0.8-0.2-1.5-0.4-2.3c-0.2-0.4-0.5-0.8-0.9-0.9c-6-1.8-11.9-3.5-17.9-5.2c-0.8-0.2-1.1-0.6-1-1.4 c0.2-1.7,0.3-3.4,0.5-5.2c0.6-5.1,1.1-10.2,2-15.3c1.1-6.7,4.5-12.8,9.6-17.3c0-0.1,0.1-0.1,0.1-0.2c-2.4-0.2-4.8-0.2-7.1-0.6 c-5.2-0.9-10.1-3.1-14.3-6.4c-4.9-3.6-9.5-7.6-14.3-11.4c-0.3-0.3-0.3-0.8-0.2-1.2c2.7-5.1,5.4-10.1,8.2-15.2 c1.3-2.3,1.3-2.2-0.3-4.3C24.7,184.9,24.6,184.9,24.4,184.8z M271.8,60.6c-0.6-2.4-1.1-4.7-1.8-6.9c-1.2-4.2-2.5-8.4-3.7-12.7 c-0.3-1.6-0.5-3.1-0.6-4.7c-1.5,0.5-3.1,0.9-4.7,1.2c-5.1,0.7-10.1,1.1-15.2,1.8c-6.9,1-13.6,2.7-18.8,7.8 c-0.2,0.2-0.6,0.2-0.9,0.3c-0.1-0.3-0.2-0.6-0.3-0.9c-0.1-1.2-0.2-2.5-0.4-3.7c-0.9-4.8-3.2-8.9-5.9-12.9 c-4.2-6.3-10.2-11.3-13.5-18.3c-6.3,5.7-14.7,8-21.4,13.1c0.5,0.3,0.9,0.6,1.4,1c0.8,0.7,1.4,0.5,2.3,0c5.4-3,10.7-5.9,16.1-8.8 c0.4-0.1,0.8-0.1,1.1,0.2c4,5,8.1,9.9,11.9,15c3.4,4.4,5.6,9.7,6.2,15.2c0.1,1.8,0.1,3.6,0,5.5c0.3,0,0.3,0.1,0.4,0 c0.1-0.1,0.2-0.2,0.4-0.3c3.5-3.9,7.9-6.8,12.9-8.3c8.1-2.7,16.6-2.6,24.9-3.6c0.4,0.1,0.7,0.3,0.9,0.7c1.7,5.5,3.4,11,4.9,16.5 C268.9,60.2,268.8,60.3,271.8,60.6z"></path> <path class="st1" d="M260,173.8c4,2.3,7.7,5.2,10.9,8.6c6,6.7,9.8,14.3,9.9,23.5c0.1,10.9-4.7,19.1-13.7,24.9 c-6.6,4.1-14.3,6.1-22,5.5c-3.4-0.2-6.7-0.8-10.1-1.2c0.2,1.1,0.5,2.3,0.7,3.6c1.6,9,0.9,17.8-3.5,26 c-7.4,14.1-22.3,19.6-37.2,13.9c-8.4-3.2-14.8-9-19.7-16.4c-0.4-0.6-0.8-1.3-1.2-1.9c-0.1-0.1-0.2-0.2-0.3-0.2 c-0.6,1-1.3,2-1.9,3c-5.8,8.4-13.4,14.5-23.5,16.9c-14.9,3.5-28.8-4.2-34.4-18.8c-3-8-3.5-16.7-1.4-25c0.1-0.4,0.2-0.8,0.3-1.3 c-1.8,0.4-3.6,0.8-5.3,1c-10.7,1.4-20.7-0.1-29.4-6.8c-10.5-8-14-21-9.3-33.7c3.3-8.9,9.3-15.5,17.2-20.6l1.5-1 c-1.5-1-3-1.9-4.4-3c-7.7-5.7-13.2-13-15.5-22.4c-3.6-14.9,4-29,18.7-34.6c8-3,16.8-3.5,25.1-1.4c0.4,0.1,0.8,0.2,1.3,0.3 c-0.4-2.3-0.9-4.6-1.2-6.9c-1.2-11.4,1.2-21.8,9.2-30.3c5.6-6.1,13.6-9.3,21.9-8.8c8.8,0.4,16.3,4.1,22.7,10 c3.1,2.8,5.8,6.1,7.9,9.8c0.2,0.3,0.4,0.5,0.6,0.9c0.3-0.5,0.6-0.9,0.8-1.3c5.5-8.8,12.9-15.2,23-18.2c14.1-4.1,28,1.9,34.6,15.1 c4.5,9,5,18.4,2.9,28.2l-0.3,1.5c1.3-0.3,2.5-0.5,3.6-0.8c9.3-1.7,18.3-0.9,26.7,3.7c13.9,7.5,19.2,22.6,13.2,37.6 c-3.3,8.2-9,14.5-16.4,19.3C261.4,173,260.8,173.3,260,173.8z M246.3,235.4c5.3,0.1,10.7-0.9,15.6-3c13.8-5.7,20.8-19.7,16.8-34 c-3-10.6-9.8-18.1-19.1-23.6c-0.4-0.3-0.8-0.6-1.1-1c0.3-0.3,0.7-0.6,1.1-0.9c6.6-3.7,12.1-9.1,15.9-15.7 c3.6-6.4,5.2-13.3,3.9-20.6c-1.7-9.8-7.6-16.6-16.4-20.8s-18.3-4.5-27.7-2.1c-0.5,0.1-1.1,0.1-1.6,0.1c0-0.6,0.1-1.1,0.2-1.7 c2.3-8.1,2-16.8-0.8-24.8c-6-16.5-22.3-23.8-38.5-17.3c-8.8,3.6-15.2,9.9-19.9,18c-0.3,0.4-0.5,0.7-0.9,1c-0.3-0.3-0.6-0.6-0.9-1 c-3.4-6-8.1-11.1-13.9-14.8c-6.4-4.1-13.3-6.2-20.9-5.3c-9.4,1-16.4,6-21.1,14.2c-5.5,9.6-6,19.7-3.3,30.2c0.1,0.5,0.1,1,0.1,1.5 c-0.5,0-1,0-1.5-0.1c-9.9-2.6-19.6-2.2-28.8,2.5c-12.8,6.5-18.6,19.8-14.5,33.6c3.1,10.3,9.9,17.7,19,23.1c0.4,0.2,0.7,0.5,1,0.8 c-0.3,0.4-0.6,0.7-1,0.9c-6.4,3.6-11.7,8.7-15.5,15c-4,6.7-5.8,14-4.3,21.8c2,10.4,8.4,17.1,17.9,21.1c8.7,3.7,17.6,3.6,26.6,1.2 c1.2-0.3,1.4-0.1,1.1,1.1c-1.6,5.7-2.1,11.7-1.3,17.6c1,7.3,3.7,13.8,8.9,19c8.3,8.4,18.4,10.3,29.5,6.8 c9.7-3.1,16.6-9.8,21.8-18.4c0.3-0.4,0.7-0.9,1.1-1.2c0.4,0.4,0.7,0.8,1,1.2c3.3,5.8,7.9,10.8,13.6,14.5c7.4,4.7,15.3,6.9,24,5 c9.4-2.1,15.7-8,19.7-16.5c4.1-8.9,4.2-18.2,1.8-27.6c-0.1-0.4-0.1-0.8,0-1.3c0.4,0,0.8,0,1.2,0.1 C238.7,234.9,242.5,235.4,246.3,235.4L246.3,235.4z"></path> <path class="st1" d="M256.4,173.7l-3.9,4.5c2.7,2.2,5.2,4,7.5,6.2c5.1,4.8,8.7,10.5,9.7,17.6c1.3,9.3-3,17.4-11.4,21.7 c-6.4,3.3-13.2,4-20.2,3.2c-1.7-0.2-3.4-0.5-5.4-0.8c-0.2,1.7-0.2,3.4-0.2,5.1c0.1,1-0.2,1-1,1c-1.7,0-3.4,0.1-5.3,0.2 c0.3,2,0.7,3.8,0.9,5.6c0.8,6.8,0.1,13.5-3,19.7c-5.7,11.3-17.7,15.2-29.4,9.6c-6.5-3.1-11.4-8-15.4-13.9l-0.8-1.2l-4.5,4 l-4.7-4.1l-1.1,1.6c-4.2,6.2-9.4,11.3-16.4,14.1c-7.6,3-15,2.9-21.7-2.3c-5-3.9-7.6-9.3-8.9-15.4c-1.1-5.6-0.9-11.4,0.3-16.9 c0-0.2,0.1-0.3,0.1-0.8c-1.7-0.1-3.5-0.2-5.2-0.2c-1,0.1-1-0.2-1-1c0-1.7-0.2-3.5-0.2-5.2c-3.2,0.4-6.1,0.8-9,1 c-6.8,0.3-13.2-1-19-4.8c-8.6-5.7-11.6-15.4-8-25.4c2.7-7.4,7.8-12.9,14.2-17.3c0.6-0.4,1.2-0.8,2-1.3c-1.3-1.4-2.4-2.7-3.6-3.8 c-0.6-0.6-0.6-0.8,0-1.4c1.3-1.2,2.4-2.6,3.5-3.8c-2.7-2.2-5.3-4.1-7.7-6.4c-4.9-4.6-8.4-10.2-9.5-16.9 c-1.5-9.8,2.7-17.8,11.6-22.3c5.5-2.8,11.7-3.9,17.9-3.3c2.4,0.2,4.8,0.6,7.6,0.9l0.4-5.9l5.7-0.4c-0.3-4.4-0.7-8.5-0.7-12.6 c0.1-4.9,1.4-9.7,3.8-13.9c5.2-9.1,14.6-12.9,24.6-10c7.7,2.3,13.4,7.2,18.1,13.5c0.7,1,1.4,2,2.2,3.2c1.3-1.1,2.5-2.2,3.7-3.4 c0.7-0.8,1-0.7,1.6,0c1.1,1.2,2.5,2.3,3.8,3.5c0.6-0.9,1.1-1.6,1.6-2.3c4.2-5.9,9.3-10.8,16.2-13.5c7.6-3,15-2.7,21.6,2.5 c5,3.9,7.6,9.4,8.8,15.6c1,5.4,0.9,11-0.3,16.4c0,0.2-0.1,0.5-0.2,1l6,0.4c0.1,1.9,0.3,4,0.4,6c3.2-0.4,6.1-0.8,9.1-1 c6-0.4,11.9,0.9,17.2,3.7c10,5.5,13.7,16,9.5,26.9c-2.7,7-7.5,12.2-13.5,16.5c-0.7,0.5-1.4,0.9-2,1.4c-0.1,0-0.1,0.1-0.3,0.4 L256.4,173.7z M119.5,196l0.2,0.3c-0.3,0.4-0.6,0.7-0.9,1c-2.5,1.9-4.2,4.5-4.9,7.5c-0.8,3.2-0.9,6.5-0.3,9.8 c0.7,3.9,1.6,7.7,2.4,11.6c0.3,1.7,0.5,3.4,0.7,4.8c2.8,0.5,5.4,0.9,8.1,1.5c4.3,0.9,8.6,2,13,1.9c5.2-0.1,9.8-1.5,13-6.1 c0.2-0.2,0.4-0.4,0.6-0.6c0.1,0.5,0.4,0.9,0.3,1.2c-0.9,4.6,0.8,8.4,3.6,11.9c2.5,2.9,5.5,5.4,8.8,7.4c3.4,2.2,7,3.9,9.7,6.7 c2.5-1.7,4.9-3.3,7.2-4.9c3.3-2.1,6.4-4.5,9.4-6.9c4.1-3.6,6.7-8.1,5.7-14c0-0.3,0.1-0.6,0.2-0.9c0.3,0.2,0.8,0.3,1,0.6 c2.2,3,5.5,5,9.2,5.5c3.2,0.5,6.4,0.5,9.6-0.2c5.1-1,10.2-2.1,15.2-3.1c0.3-1.8,0.5-3.8,0.9-5.8c0.8-4.5,1.9-9,2.3-13.5 c0.5-5.7-0.9-11-5.9-14.6c-0.2-0.1-0.2-0.5-0.4-0.7c0.3-0.1,0.7-0.3,1-0.3c4.8,0.9,8.7-1,12.2-4c2.7-2.5,5-5.3,6.9-8.4 c2.2-3.4,3.9-7,6.7-9.7c-1.8-2.6-3.4-5.2-5.2-7.7c-2.2-3.1-4.3-6.2-6.8-9.1c-2.4-3-5.8-5-9.6-5.6c-1.7-0.1-3.5-0.1-5.3,0 c0.3-0.4,0.6-0.9,0.9-1.2c2.6-1.9,4.3-4.7,5-7.8c0.8-3.5,0.8-7.2,0.1-10.8c-1-5.1-2.1-10.2-3.1-15.3c-1.3-0.2-2.8-0.3-4.3-0.5 c-5.1-0.9-10.1-2-15.2-2.6c-4.5-0.7-9,0.7-12.4,3.7c-0.8,0.7-1.3,1.6-2,2.3c-0.2,0.2-0.4,0.3-0.7,0.4c-0.1-0.2-0.2-0.5-0.3-0.7 c0-0.6,0.2-1.1,0.2-1.7c0.3-4.2-1.5-7.6-4.1-10.7c-2.7-2.9-5.8-5.4-9.2-7.4c-3.1-2-6.2-4.1-9.5-6.2c-0.5,0.5-1.1,1-1.7,1.5 c-2.4,1.7-5,3.2-7.4,4.9c-2.9,2-5.6,4.2-8.2,6.5c-3.6,3.5-5.6,7.8-4.6,13.1c0,0.3,0,0.7-0.1,1c-0.4-0.3-0.9-0.7-1.2-1.1 c-1.6-2.2-3.8-3.8-6.4-4.6c-2.7-0.9-5.5-1.2-8.3-0.9c-3.7,0.5-7.4,1.2-11.1,1.9c-2.7,0.5-5.4,1-8.1,1.5c-0.2,1.3-0.3,2.8-0.5,4.3 c-0.8,5-2,9.9-2.6,14.9c-0.6,5.7,0.8,11,5.8,14.6c0.2,0.1,0.3,0.5,0.4,0.8c-0.3,0.1-0.6,0.3-0.9,0.3c-4.9-0.9-9,1-12.5,4.2 c-2.6,2.5-4.9,5.3-6.7,8.3c-2.2,3.3-3.9,7-6.8,9.8c0.7,0.6,1.3,1.3,1.8,2.1c1.6,2.4,3.2,4.9,4.8,7.3c2.1,3.5,4.8,6.7,7.9,9.4 c3.3,2.6,7,4.1,11.3,3.4C118.9,196,119.2,196,119.5,196z M103.1,157.2c-0.1-0.1-0.2-0.3-0.4-0.4c-4.8-4.9-8.9-10.4-12.4-16.3 c-0.9-1.6-0.9-1.6,0.8-2.1c6.4-1.7,13.1-2.7,19.7-2.8c1.1,0,1.5-0.3,1.6-1.5c0.1-1.5,0.3-3,0.6-4.4c0.5-2.4,1-4.8,1.5-7.2 c-0.2-0.1-0.4-0.2-0.5-0.2c-6.8-1.5-13.6-1.6-20.3,0.7c-12.8,4.4-18.2,16.1-13.2,28.3c2.5,5.8,6.5,10.8,11.6,14.4 c1.1,0.9,2.3,1.6,3.5,2.4L103.1,157.2z M157.2,103.1l10.9-7.5c0-0.1-0.1-0.3-0.2-0.4c-3.2-5.3-7.7-9.7-13-12.9 c-5.1-3-10.6-4.4-16.6-3.2c-7,1.5-11.5,6-14.3,12.3c-2.5,5.8-3.3,12.1-2.4,18.4c0.2,1.6,0.6,3.3,0.8,4.8c4-0.7,7.8-1.5,11.7-2 c1.3-0.2,1.6-0.6,1.6-1.7c0.1-6.4,1-12.8,2.6-19c0.6-2.6,0.5-2.4,2.6-1.1C146.8,94.1,152.3,98.3,157.2,103.1L157.2,103.1z M190.5,103.1c5.4-5.3,11.6-9.9,18.2-13.6c0.2,0.8,0.4,1.4,0.6,1.9c1.7,6.4,2.6,13.1,2.7,19.7c0,0.9,0.3,1.2,1.2,1.2 c2,0.2,4,0.5,6,0.9s3.9,0.8,5.8,1.3c1.7-6.2,1.9-14.8-0.8-21.8c-4.4-11.3-14.6-16.6-25.9-13c-8.4,2.7-14.2,8.5-18.8,15.8 c0,0,0,0.1,0,0.1L190.5,103.1z M244.6,190.5c0.1,0.1,0.3,0.4,0.5,0.6c4.8,5,8.9,10.5,12.4,16.4c0.7,1.2,0.6,1.3-0.7,1.6 c-5.2,1.4-10.6,2.3-16,2.7l-5.2,0.3l-2.4,13c1.1,0.2,2.2,0.5,3.4,0.6c7,1.1,13.8,0.6,20.3-2.4c9.2-4.3,13.7-12.8,11.6-22.8 c-1.3-6.4-4.9-11.6-9.7-16c-2.1-1.9-4.4-3.6-6.6-5.4L244.6,190.5z M112,212.1l-1.4-0.1c-6.8-0.2-13.5-1.1-20-2.9 c-1.1-0.3-1.2-0.7-0.6-1.5c2-3,3.9-6.2,6.1-9.1s4.6-5.5,6.8-8.2l-7.4-10.8c-0.2,0.1-0.3,0.1-0.5,0.2c-6.3,4.1-11.5,9.3-14.6,16.4 c-4.8,11-0.6,22.1,10.2,27.3c5.8,2.6,12.3,3.5,18.6,2.6c1.8-0.2,3.5-0.6,5.2-0.9C113.7,220.7,112.9,216.5,112,212.1z M122.6,233.1c-0.1,0.1-0.1,0.3-0.2,0.4c-1.6,7.4-1.7,14.7,1.2,21.8c2.6,6.3,6.8,11.1,13.7,12.9c6.3,1.7,12.1,0.3,17.5-2.9 c5.5-3.3,10.1-7.9,13.4-13.4l-11-7.4c-0.1,0.1-0.3,0.3-0.5,0.4c-4.9,4.8-10.4,8.9-16.3,12.4c-1.5,0.9-1.5,0.9-2-0.8 c-1.8-6.5-2.7-13.2-2.8-20c0-0.9-0.2-1.3-1.2-1.3c-1,0-2-0.1-2.9-0.4C128.6,234.3,125.6,233.7,122.6,233.1L122.6,233.1z M225.1,233l-0.9,0.1c-3.6,0.7-7.3,1.5-10.9,2.1c-1,0.2-1.3,0.4-1.3,1.4c-0.1,6.8-1.1,13.5-2.8,20c-0.4,1.6-0.5,1.7-1.8,0.8 c-3.4-2.3-6.9-4.5-10.2-7c-2.4-1.8-4.6-3.9-6.8-5.8l-10.9,7.4c4.6,7,10.2,12.7,18.3,15.6c10.2,3.6,19.8-0.1,25-9.6 c2.4-4.5,3.6-9.4,3.6-14.5C226.4,240,226,236.5,225.1,233z M252,168.1c0.2-0.1,0.3-0.2,0.5-0.3c4.8-3,8.9-7,12.1-11.7 c2.5-3.7,4-8,4.3-12.4c0.4-8.4-3.3-14.5-10.5-18.6c-6.4-3.7-13.4-4.4-20.6-3.4c-1.6,0.2-3.2,0.5-4.9,0.8c0.1,0.5,0.1,0.7,0.2,0.9 c0.7,3.5,1.5,7,2,10.5c0.2,1.3,0.5,1.7,1.8,1.7c6.7,0.1,13.3,1,19.7,2.8c1.4,0.4,1.5,0.6,0.7,1.7c-2.7,4-5.4,7.9-8.3,11.8 c-1.4,1.9-3.1,3.6-4.6,5.2L252,168.1z"></path> <path class="st1" d="M219.8,192.9c0.3,0.4,0.5,0.8,0.8,1.2c3.5,5.5,5.2,11.4,3.6,18c-1.6,6.9-7.5,11.9-14.5,12.6 c-5.4,0.5-10.8-0.8-15.3-3.8c-0.5-0.3-0.9-0.6-1.5-1c-0.4,1.6-0.7,3.1-1.2,4.5c-1.4,4.9-4.6,9.1-8.8,11.9 c-7.5,4.9-17.1,3.1-22.9-4.3c-2.7-3.5-4.5-7.7-5.2-12.1c-0.5,0.3-0.8,0.5-1.2,0.7c-4,2.7-8.6,4.2-13.4,4.3 c-9.4,0.2-17.2-7.3-17.4-16.8c0-0.9,0-1.9,0.2-2.8c0.5-4.1,1.9-7.9,4.2-11.3c0.2-0.2,0.3-0.5,0.5-0.7c0-0.1,0-0.2,0-0.3 c-1.4-0.4-2.9-0.7-4.4-1.2c-5.8-1.9-10.4-5.3-13-11c-3.4-7.4-1.1-15.6,5.6-20.9c3.3-2.5,7.1-4.1,11.1-4.8c0.2,0,0.4-0.1,0.8-0.2 c-0.7-1.2-1.4-2.3-2-3.5c-2.7-5.1-3.7-10.4-2.2-16.1c1.7-6.5,7.2-11.4,13.9-12.2c5.5-0.7,11.1,0.7,15.7,3.8 c0.5,0.3,0.9,0.6,1.5,1c0.5-1.8,0.9-3.6,1.5-5.3c1.4-4.1,3.9-7.7,7.4-10.3c7.8-5.7,17.8-4.3,24,3.4c2.5,3.1,4.1,6.7,4.9,10.5 c0.1,0.5,0.2,1,0.4,1.7l1.4-0.9c4-2.7,8.7-4.2,13.5-4.1c9.8,0.3,16.1,7,16.9,15.5c0.5,5.4-1,10.8-4.1,15.3 c-0.2,0.3-0.4,0.5-0.5,0.8c0,0.1,0,0.2,0,0.2c2.1,0.7,4.4,1.2,6.4,2.1c4.5,1.7,8.2,5,10.5,9.2c3.8,7.1,2.1,15.6-4.2,21.1 c-3.5,3-7.7,4.9-12.1,5.7C220.3,192.7,220.1,192.8,219.8,192.9z M123.7,207.3c0.1,0.9,0.2,1.8,0.3,2.7c1.3,8.6,8.1,14,16.8,13.9 c4.9-0.2,9.5-1.9,13.4-4.8c1.3-0.9,1.4-0.9,1.6,0.7c0.6,4.3,2.4,8.5,5.1,11.9c5.8,7.1,15.1,8.5,22.3,3.3 c5.1-3.7,7.6-8.8,8.6-14.9c0.3-1.9,0.3-1.9,1.9-0.8c4.7,3.3,9.8,5.2,15.6,4.6c8.9-1,14.6-7.9,14.5-16.9 c-0.2-4.9-1.9-9.6-4.8-13.4c-0.9-1.2-0.8-1.4,0.7-1.6c4.8-0.6,9.2-2.7,12.8-5.9c6.6-5.8,7.3-16,1.4-22.6 c-0.1-0.1-0.2-0.2-0.3-0.3c-3.6-3.9-8.4-6.4-13.6-7.1c-2-0.3-2-0.3-0.9-2c3.3-4.6,5.1-9.7,4.6-15.5c-0.9-9.2-8.3-15-17.4-14.5 c-4.6,0.3-9.1,2-12.8,4.8c-1.3,0.9-1.5,0.9-1.7-0.7c-0.6-4.8-2.8-9.3-6.1-12.9c-5.9-6.6-16-7.2-22.6-1.3 c-0.2,0.2-0.5,0.4-0.7,0.7c-3.7,3.6-6,8.4-6.7,13.5c-0.3,1.7-0.4,1.7-1.7,0.7c-3.7-2.9-8.1-4.5-12.8-4.8 c-6.5-0.3-11.9,2-15.2,7.8c-3.4,5.8-2.9,12-0.1,18c0.9,1.7,1.8,3.3,2.9,4.9c0.4,0.7,0.5,1.1-0.5,1.2c-0.2,0-0.5,0.1-0.7,0.1 c-4.9,0.6-9.5,2.9-13,6.4c-5.8,5.9-6.8,13.9-2.1,20.7c3.7,5.2,8.9,7.9,15.1,8.9c1.8,0.3,1.8,0.4,0.8,1.8 C125.6,197.5,123.9,202.3,123.7,207.3z"></path> <path class="st1" d="M189.4,211.2c-0.4,2.5-0.6,5-1.1,7.3c-0.7,3.3-2.2,6.3-4.3,8.9c-6.1,7.2-15.7,6.7-21.1-1.1 c-2.5-3.6-3.9-7.9-4.2-12.2c-0.1-1-0.1-2-0.2-3.1c-1,0.9-1.9,1.7-2.8,2.4c-4.1,3.3-8.6,5.5-14,5.5c-8.8,0-14-6.7-12.8-15.3 c0.8-4.7,2.9-9.1,6.2-12.6c0.5-0.5,0.9-1,1.4-1.6c0,0,0-0.1,0.1-0.3c-1.6-0.1-3.1-0.2-4.7-0.4c-4.2-0.5-8.1-2.1-11.4-4.7 c-7.4-6.1-7-15.8,0.9-21.3c3.6-2.5,7.9-3.9,12.2-4.2l3.1-0.2c-0.9-1.1-1.8-2-2.6-3c-3.4-4.3-5.6-9.1-5.3-14.8 c0.1-6.6,5.5-11.9,12.1-11.9c6.3-0.2,11.4,2.5,16,6.5c0.5,0.4,0.9,0.8,1.4,1.2c0,0,0.1,0,0.2,0c0.3-2.1,0.4-4.3,0.8-6.4 c0.6-3.9,2.4-7.5,5-10.4c5.6-6.1,13.9-6,19.4,0.2c3.5,4,5,8.8,5.4,14c0.1,0.8,0.1,1.6,0.1,2.5c0,0,0,0.1,0.1,0.2 c0.3-0.1,0.5-0.3,0.8-0.5c3.9-3.6,8.3-6.4,13.6-7.1c10.3-1.4,16.4,5.8,15.2,14.8c-0.7,5.4-3.3,9.8-7,13.8l-0.8,0.9 c2.3,0.3,4.4,0.4,6.5,0.9c4.6,0.7,8.7,3,11.8,6.5c4.3,4.6,4.3,11.7,0,16.3c-3.5,4.1-8.2,6-13.5,6.8c-1.6,0.2-3.2,0.3-4.9,0.5 c0.9,1.1,1.8,2,2.6,3c3.2,4.1,5.4,8.6,5.3,13.9c-0.1,8.9-6.8,13.6-14.8,12.7c-5-0.7-9.6-2.9-13.3-6.4L189.4,211.2 C189.4,211.2,189.4,211.2,189.4,211.2z M135.6,188.1c0.7,0,1.5,0,2.2,0c0.3,0,0.6,0.2,0.7,0.3s-0.1,0.5-0.3,0.7 c-0.5,0.5-1,1-1.5,1.5c-3.6,3.6-6.1,8.2-6.9,13.2c-0.9,5.9,1.9,11.3,7.1,13.2c3.2,1.1,6.7,1.1,9.9,0c4.4-1.5,8.3-4,11.4-7.4 c0.3-0.2,0.6-0.4,1-0.6c0.1,0.4,0.2,0.7,0.3,1.1c0.1,2.5,0.3,4.9,0.7,7.4c1,4.8,3.2,9.1,7.4,12c2.3,1.6,5.1,2.3,7.9,1.9 c4.4-0.8,7.3-3.4,9.5-7.1c2.3-4,3.4-8.5,3.3-13.1c0.1-0.7,0.2-1.4,0.3-2.1c0.6,0.4,1.2,0.8,1.7,1.3c4,4,8.6,6.8,14.3,7.5 c6.3,0.8,12-3,13.2-8.9c0.7-3.5,0.2-7-1.3-10.3c-1.6-3.6-3.8-6.7-6.7-9.4c-0.2-0.3-0.4-0.6-0.5-1c0.3-0.1,0.7-0.2,1-0.3 c1.9-0.1,3.8-0.1,5.7-0.3c5.1-0.8,9.6-2.6,13-6.7c3.7-4.1,3.7-10.3,0.1-14.5c-2.3-2.7-5.3-4.7-8.7-5.8c-3.3-1.1-6.7-1.5-10.1-1.4 c-0.3,0-0.7-0.2-1-0.3c0.1-0.3,0.3-0.6,0.4-0.8c0.2-0.2,0.3-0.4,0.5-0.5c4.1-4.1,7.1-8.8,7.8-14.6c0.9-5.4-2.1-10.6-7.1-12.7 c-2.7-1-5.6-1.2-8.4-0.4c-4.9,1.2-9.3,3.8-12.7,7.5c-0.4,0.3-0.9,0.6-1.3,0.9c-0.1-0.5-0.2-1-0.3-1.5c0.1-5.3-0.9-10.4-4-14.9 c-2.3-3.3-5.4-5.8-9.6-6c-5.2-0.3-8.8,2.5-11.5,6.7c-2.9,4.4-3.7,9.4-3.6,14.6c0,0.4-0.1,0.7-0.3,1.1c-0.3-0.1-0.6-0.3-0.9-0.5 c-0.5-0.4-0.9-0.9-1.4-1.4c-3.6-3.6-8.2-6-13.2-6.8c-5.6-0.9-10.8,1.6-12.9,6.5c-1.2,2.8-1.5,6-0.7,9c1.2,4.9,3.9,9.3,7.6,12.8 c0.3,0.4,0.6,0.8,0.8,1.3c-0.5,0.1-0.9,0.2-1.4,0.2c-4.1,0-8.1,0.4-11.8,2.3c-1.9,0.9-3.7,2.1-5.2,3.4 c-5.8,5.5-5.4,13.1,0.8,18.1C125.2,186.7,130.2,188,135.6,188.1L135.6,188.1z"></path> <path class="st1" d="M162,145.7c2.3-5.8,4.6-11.5,7.1-17.2c1-2.2,2.6-4.1,3.9-6.2c0.6-1,1.1-0.8,1.7,0c3.7,4.9,6.5,10.5,8.1,16.4 c0.3,0.9,0.7,1.8,1.1,2.6c0.6,1.4,1.1,2.9,1.6,4.4c2.4-1,4.9-1.9,7.1-3.2c5.2-2.9,10.9-4.8,16.8-5.6c1.6-0.2,1.7-0.1,1.4,1.5 c-0.9,5.8-2.8,11.4-5.6,16.5c-0.8,1.4-1.3,3-1.9,4.5c-0.4,0.9-0.9,1.8-1.4,2.7c2.6,1,5.1,2.1,7.8,2.9c5.7,1.7,11,4.4,15.8,8 c0.3,0.2,0.7,0.4,1.1,0.6c-0.6,0.5-0.8,0.8-1.1,1c-5,3.9-10.8,6.7-17,8.2c-0.5,0.2-0.9,0.3-1.4,0.6l-5,2.1 c2.2,5,4.6,9.9,6.6,15.1c0.9,2.8,1.7,5.8,2.1,8.7c0.3,1.6,0.1,1.7-1.5,1.5c-5.9-0.9-11.6-2.9-16.8-5.8c-1.4-0.8-2.9-1.2-4.4-1.9 c-0.9-0.4-1.7-0.9-2.5-1.3c-1,2.5-2.1,4.9-2.8,7.4c-1.7,5.8-4.4,11.2-8,16c-0.2,0.3-0.5,0.6-0.8,0.9c-6.4-7-8.3-16-11.7-24.4 c-4.1,1.9-8.3,4-12.5,5.9c-3.7,1.6-7.6,2.6-11.5,3.1c-1.4,0.2-1.4,0.1-1.3-1.2c0.8-6.2,2.9-12.1,6-17.5c0.3-0.6,0.5-1.2,0.8-1.8 c0.7-1.6,1.4-3.2,2.1-4.9c-4.1-1.5-8.3-2.9-12.5-4.5c-3.9-1.6-7.6-3.6-10.9-6.2c-1-0.8-1-0.9,0.1-1.7c5-3.9,10.8-6.7,17-8.2 c0.2,0,0.5-0.1,0.7-0.2l5.6-2.5c-1.1-2.4-2.2-5.1-3.5-7.6c-2.8-5.2-4.6-10.9-5.4-16.7c-0.1-0.9,0.2-1.1,1-1 c5.9,0.8,11.7,2.7,16.9,5.6c1.1,0.6,2.2,1,3.4,1.5C159.4,144.5,160.8,145.1,162,145.7z M162.9,200.3c0.1,0.4,0.2,0.8,0.3,1.3 c0.4,2.6,1.6,5,3.4,7c3.4,4,9.4,4.4,13.3,1c0.5-0.4,0.9-0.9,1.3-1.3c1.6-1.9,2.7-4.3,3.1-6.8c0.3-1.6,0.3-1.5,1.7-0.7 c1.4,0.9,2.8,1.6,4.3,2.1c5.7,1.8,11.1-0.8,12.7-6c0.9-3.1,0.5-6.4-1.1-9.2c-0.5-1-1.1-1.9-1.8-3c0.4-0.2,0.8-0.3,1.3-0.4 c2.5-0.4,4.9-1.5,6.9-3.1c4.1-3.1,4.8-9,1.7-13.1c0-0.1-0.1-0.1-0.1-0.2c-2-2.5-5-4.2-8.2-4.7c-0.5-0.1-1-0.3-1.6-0.4 c0.3-0.4,0.6-0.8,0.9-1.3c1-1.8,1.7-3.6,2.3-5.5c1.4-5-1.6-10.2-6.6-11.6c-0.7-0.2-1.3-0.3-2-0.3c-3.2-0.2-6.3,0.8-8.8,2.7 c-1.1,0.8-1.3,0.7-1.5-0.7c-0.4-2.7-1.6-5.2-3.4-7.3c-3.4-3.9-9.3-4.4-13.3-0.9c-0.4,0.3-0.7,0.7-1.1,1.1c-1.8,2-2.9,4.4-3.3,7.1 c-0.2,1.4-0.4,1.4-1.6,0.7c-1.3-0.9-2.8-1.6-4.3-2.1c-6.1-1.9-11.9,1.1-13,6.8c-0.7,3.6,0.2,7.3,2.4,10.2 c0.9,1.3,0.8,1.4-0.7,1.7c-2.7,0.4-5.2,1.6-7.1,3.4c-3.8,3.2-4.4,8.8-1.4,12.7c2.1,2.7,5.1,4.5,8.5,5c1.5,0.3,1.5,0.3,0.7,1.6 c-0.8,1.2-1.5,2.5-2,3.8c-1.3,3.9-1.1,7.7,1.9,10.9s6.7,3.6,10.6,2.4C159.3,202.2,161.2,201.3,162.9,200.3L162.9,200.3z"></path> <path class="st1" d="M196.5,183.2c0.6,0.7,1,1.2,1.4,1.7c1.8,2.1,2.8,4.8,3.1,7.5c0.4,5.6-3.7,9.5-9.9,8.4 c-2.5-0.5-4.9-1.7-6.8-3.4l-1-0.8c-0.3,1.5-0.4,2.9-0.7,4.3c-0.6,2.6-2,4.9-4.1,6.6c-3.6,2.8-8.3,2-11.2-1.9 c-1.6-2.1-2.5-4.7-2.7-7.3l-0.2-1.7l-1.1,0.9c-2.7,2.2-5.8,3.7-9.4,3.4c-4.2-0.1-7.4-3.6-7.3-7.8c0-0.2,0-0.5,0.1-0.7 c0.3-3,1.5-5.9,3.5-8.1l0.9-1.1c-1.5-0.3-2.9-0.4-4.3-0.7c-2.1-0.5-4-1.5-5.5-2.9c-3.8-3.7-3.6-8.6,0.4-12.1 c2.2-1.8,4.9-2.8,7.7-3l1.7-0.1c-0.6-0.8-1.2-1.4-1.6-2.1c-1.9-2.4-2.9-5.5-2.8-8.6c0.2-4.2,3.8-7.3,7.9-7.1c0.2,0,0.4,0,0.5,0 c3.1,0.3,5.9,1.6,8.2,3.6l1.1,0.9c0-2.7,0.6-5.3,1.9-7.6c1.4-2.5,3.3-4.4,6.2-4.8c3.3-0.6,5.9,0.9,7.8,3.4 c1.9,2.6,2.9,5.8,2.8,9.1c0.5-0.4,0.8-0.6,1.1-0.9c2.1-1.9,4.8-3.1,7.6-3.5c6.1-0.7,10.2,3.9,8.9,10c-0.6,2.7-1.4,4.3-4.1,7.6 c0.6,0.1,1,0.2,1.5,0.3c3.1,0.1,6,1.3,8.3,3.4c4,3.8,3.6,9.2-0.9,12.4C202.8,182.3,199.7,183.2,196.5,183.2z M182,150.9 c0.2-3.2-0.8-6.3-2.9-8.7c-2.9-3.5-7.2-3.6-10.3-0.4c-0.8,0.9-1.5,1.9-2.1,3c-1,2.2-1.5,4.7-1.4,7.1c-0.1,0.3-0.2,0.7-0.4,0.9 c-0.3-0.1-0.6-0.3-0.8-0.4c-1.2-1-2.4-2.1-3.6-2.9c-1.8-1.3-4-1.9-6.2-1.9c-4.9,0.2-7.7,4-6.6,9c0.7,2.9,2.3,5.6,4.6,7.6 c0.2,0.3,0.4,0.6,0.5,0.9c-0.3,0.1-0.7,0.3-1,0.3c-0.8,0.1-1.6,0-2.3,0.1c-2.4,0.2-4.6,1-6.6,2.3c-4.6,3.2-4.6,8.8,0.1,12 c2.6,1.7,5.6,2.5,8.7,2.3c0.4,0,0.8,0.1,1.1,0.3c-0.2,0.4-0.4,0.7-0.6,1.1c-2.1,2-3.7,4.6-4.4,7.5c-1.3,5.7,2.9,10.1,8.6,8.8 c2.8-0.7,5.3-2.1,7.3-4.1c0.4-0.3,0.9-0.6,1.4-0.9c0.1,0.5,0.2,1.1,0.3,1.6c-0.1,2.8,0.7,5.5,2.1,7.9c3.3,5.1,9.2,5.1,12.5,0 c1.5-2.5,2.3-5.4,2.2-8.3c0-0.4,0.1-0.8,0.3-1.2c0.4,0.2,0.8,0.4,1.1,0.6c2.1,2.2,4.8,3.7,7.7,4.4c5.1,1.1,9.1-2.3,8.7-7.5 c-0.3-3.5-2.1-6.3-4.5-8.7c-0.3-0.3-0.5-0.7-0.7-1.1c0.4-0.2,0.9-0.3,1.3-0.4c2.9,0.1,5.9-0.7,8.3-2.2c5-3.3,4.9-9.3-0.2-12.4 c-2.5-1.5-5.3-2.2-8.1-2.1c-0.5-0.1-0.9-0.2-1.3-0.4c0.2-0.4,0.4-0.8,0.7-1.1c2.1-2,3.6-4.6,4.3-7.5c1.2-5.4-2.4-9.4-7.8-8.8 c-3,0.4-5.8,1.8-7.9,4c-0.5,0.4-1.1,0.8-1.6,1.2L182,150.9z"></path> <path class="st1" d="M167.5,158c1.1-7.3,3.6-13.5,6.5-15.7c3.7,4.5,5.9,10.2,6.2,16.1c0.4-0.3,0.7-0.5,0.9-0.7 c3.9-3.3,8.7-5.4,13.8-6.1c1.2-0.2,1.3,0,1.1,1.3c-0.7,5.2-2.9,10.1-6.4,14.1c-0.1,0.1-0.1,0.2-0.2,0.3c2.8,0.7,5.6,1.3,8.3,2.2 c2.8,1,5.4,2.5,7.6,4.5c-4.6,3.8-10.2,6-16.2,6.3c0.4,0.5,0.6,0.8,0.8,1.1c3.2,4,5.3,8.8,6,13.9c0.1,1-0.3,1.1-1.1,1 c-5.2-0.7-10.1-2.9-14.1-6.3c-0.2-0.1-0.4-0.3-0.7-0.5c-0.3,5.9-2.6,11.6-6.4,16.2c-3.8-4.6-6-10.2-6.4-16.1 c-0.3,0.2-0.6,0.4-0.9,0.6c-4,3.3-8.8,5.5-14,6.2c-1.3,0.2-1.1-0.5-1-1.3c0.7-5.2,3-10.1,6.4-14.1c0.1-0.1,0.2-0.3,0.4-0.6 c-6-0.3-11.6-2.6-16.2-6.4c4.6-3.8,10.3-6.1,16.3-6.4c-4-4.5-6.4-10.1-7-16c2.9,0.1,5.8,0.8,8.5,2.1 C162.5,154.9,164.9,156.5,167.5,158z M188.7,173.8c0-8.2-6.6-14.9-14.8-14.9c-8.2,0-14.9,6.6-14.9,14.8c0,8.2,6.6,14.9,14.8,14.9 c0,0,0,0,0,0C182,188.6,188.6,182,188.7,173.8L188.7,173.8z M204,173.8c-4.4-3.4-9.7-5.2-15.2-5.4c1.1,3.5,1.1,7.2,0,10.7 C194.3,179,199.6,177.2,204,173.8L204,173.8z M167,159.4c-4-3.8-9.1-6.2-14.5-6.9c0.7,5.4,3.2,10.5,6.9,14.5 C162,162.9,162.7,162.2,167,159.4z M179.2,188.7c-3.5,1.2-7.3,1.2-10.8,0.1c0.1,5.5,2,10.8,5.4,15.2 C177.2,199.6,179,194.2,179.2,188.7L179.2,188.7z M143.8,173.9c4.4,3.3,9.7,5.2,15.1,5.3c-1.2-3.4-1.2-7.2-0.1-10.6 C154.4,168.2,147.5,170.6,143.8,173.9L143.8,173.9z M179.2,158.9c-0.1-5.5-2-10.7-5.3-15.1c-3,2.9-6,11.3-5.3,15 C172.1,157.7,175.8,157.7,179.2,158.9L179.2,158.9z M167.1,188.1c-3.3-1.6-6-4.3-7.6-7.6c-3.8,4-6.2,9.1-6.9,14.6 C158,194.4,163.1,191.9,167.1,188.1L167.1,188.1z M195.1,152.5c-5.5,0.7-10.6,3.2-14.5,7c3.3,1.6,6,4.3,7.6,7.6 C191.9,163.1,194.4,158,195.1,152.5L195.1,152.5z M195.1,195c-0.7-5.4-3.1-10.5-6.9-14.4c-1.6,3.3-4.2,5.9-7.5,7.5 C183.1,191.2,190.4,194.8,195.1,195L195.1,195z"></path> <path class="st1" d="M161.8,173.7c0-6.6,5.5-12,12.1-11.9c6.6,0,12,5.5,11.9,12.1c0,6.6-5.5,12-12.1,11.9 c-6.6,0-11.9-5.3-11.9-11.9C161.8,173.9,161.8,173.8,161.8,173.7z M162.8,173.8c0,6.1,4.9,11,11,11c6.1,0,11-4.9,11-11 c0-6-4.9-10.9-10.9-11C167.8,162.8,162.8,167.7,162.8,173.8L162.8,173.8z"></path> <path class="st1" d="M141.4,0c1,0.5,1.7,1.6,1.6,2.8c-0.1,1.2-1,2.2-2.2,2.4c-1.1,0.2-2.2-0.4-2.8-1.4c-0.5-1.1-0.3-2.4,0.6-3.2 c0.2-0.2,0.6-0.2,0.7-0.6L141.4,0z"></path> <path class="st1" d="M0,206c0.6-0.7,1.2-1.6,2.3-1.6c1.2-0.1,2.4,0.6,2.8,1.8c0.4,1.2-0.1,2.5-1.2,3.1c-1.1,0.6-2.4,0.4-3.3-0.6 C0.4,208.4,0.4,208,0,208V206z"></path> <path class="st1" d="M347.5,139.7h0.2v1.3h-0.1h-0.1c-0.4-0.3-0.4-0.8-0.2-1.1C347.4,139.8,347.4,139.7,347.5,139.7z"></path> <path class="st1" d="M206.2,347.7c0-0.1,0-0.2,0-0.2c0.3-0.4,0.8-0.4,1.2-0.1c0,0,0.1,0.1,0.1,0.1c0,0.1,0,0.1,0,0.2L206.2,347.7 z"></path> <path class="st1" d="M347.2,208.4c0.1,1.5-1,2.8-2.5,2.9c-0.1,0-0.1,0-0.2,0c-1.4,0-2.6-1.1-2.6-2.6c-0.1-1.5,1-2.8,2.5-2.9 c0,0,0.1,0,0.1,0C346,205.8,347.2,206.9,347.2,208.4z"></path> <path class="st1" d="M316.5,77.5c0-1.4,1-2.6,2.4-2.6c0,0,0,0,0.1,0c1.4-0.1,2.7,1,2.8,2.4c0.1,1.4-1,2.7-2.4,2.8 c-0.1,0-0.2,0-0.3,0C317.6,80.1,316.5,78.9,316.5,77.5C316.5,77.5,316.5,77.5,316.5,77.5z"></path> <path class="st1" d="M80.2,28.4c0,1.4-1.1,2.6-2.5,2.6c-0.1,0-0.1,0-0.2,0c-1.4,0-2.5-1.2-2.5-2.6c0-1.4,1.2-2.5,2.6-2.6 C79,25.8,80.1,26.9,80.2,28.4C80.2,28.4,80.2,28.4,80.2,28.4z"></path> <path class="st1" d="M31,269.9c0,1.4-1.2,2.6-2.6,2.6c-1.4,0-2.6-1.2-2.6-2.6s1.2-2.6,2.6-2.6c0,0,0.1,0,0.1,0 C29.8,267.3,31,268.5,31,269.9C31,269.9,31,269.9,31,269.9z"></path> <path class="st1" d="M141.5,344.5c0.1,1.4-1,2.7-2.4,2.8s-2.7-1-2.8-2.4c0-0.1,0-0.2,0-0.3c0-1.4,1.1-2.6,2.5-2.6c0,0,0,0,0,0 C140.3,341.9,141.4,343,141.5,344.5C141.5,344.4,141.5,344.5,141.5,344.5z"></path> <path class="st1" d="M318.2,274c-1.4,0-2.6-1.1-2.7-2.5c0-1.4,1.1-2.6,2.5-2.7c0.1,0,0.2,0,0.3,0c1.4,0,2.6,1.1,2.7,2.5 c0,1.4-1.1,2.6-2.5,2.7C318.4,274,318.3,274,318.2,274z"></path> <path class="st1" d="M208.5,5.5c-1.4,0.1-2.6-1-2.6-2.4c0,0,0,0,0-0.1c0-1.5,1.1-2.7,2.6-2.7c0,0,0,0,0,0c1.5,0,2.7,1.2,2.6,2.7 c0,0,0,0,0,0C211.1,4.4,209.9,5.5,208.5,5.5z"></path> <path class="st1" d="M347.5,139.7c0,0.4,0,0.8,0,1.3c-0.3,1.4-1.7,2.3-3.1,2s-2.3-1.7-2-3.1c0.1-0.5,0.4-1,0.8-1.4 c1.1-1,2.7-0.8,3.7,0.2c0,0.1,0.1,0.1,0.1,0.2C347.2,139.1,347.3,139.4,347.5,139.7z"></path> <path class="st1" d="M269.9,321.8c-1.3,0.1-2.5-0.9-2.6-2.3c0-0.1,0-0.2,0-0.2c0-1.4,1.1-2.6,2.5-2.7c0,0,0.1,0,0.1,0 c1.4,0,2.6,1.2,2.6,2.6c0,1.4-1.1,2.5-2.4,2.6C270,321.8,269.9,321.8,269.9,321.8z"></path> <path class="st1" d="M207.5,347.5h-1.3c-1.4-0.6-2-1.4-1.9-2.7c0-1.1,0.8-2.1,1.9-2.3c1.4-0.4,2.8,0.3,3.2,1.7c0,0,0,0,0,0 c0.4,1.4-0.4,2.9-1.8,3.3C207.6,347.5,207.5,347.5,207.5,347.5z"></path> <path class="st1" d="M29.2,73.7c1.4,0,2.6,1.1,2.6,2.5c0,1.5-1.2,2.6-2.7,2.7c-1.4-0.1-2.5-1.2-2.5-2.7c0-1.4,1.1-2.5,2.5-2.5 C29.1,73.6,29.2,73.6,29.2,73.7z"></path> <path class="st1" d="M2.9,136.3c1.4,0,2.6,1.1,2.7,2.6c0,1.4-1.1,2.6-2.5,2.7c-1.5,0-2.7-1.1-2.8-2.6 C0.3,137.6,1.4,136.4,2.9,136.3z"></path> <path class="st1" d="M78.8,318.4c0,1.4-1.2,2.6-2.7,2.5c-1.4,0-2.6-1.2-2.5-2.7l0,0c0-1.4,1.2-2.6,2.6-2.6c0,0,0.1,0,0.1,0 C77.7,315.7,78.8,316.9,78.8,318.4C78.8,318.3,78.8,318.3,78.8,318.4z"></path> <path class="st1" d="M273.9,29.2c0,1.4-1.2,2.6-2.6,2.6c-1.4,0-2.6-1.2-2.6-2.6c0-1.4,1.2-2.6,2.6-2.6c0,0,0.1,0,0.1,0 C272.7,26.6,273.9,27.8,273.9,29.2C273.9,29.2,273.9,29.2,273.9,29.2z"></path> <path class="st1" d="M192.4,172.4c0.9,0,1.6,0.7,1.6,1.6s-0.7,1.6-1.6,1.6c-0.9,0-1.6-0.6-1.7-1.5c0,0,0-0.1,0-0.1 C190.8,173.2,191.6,172.4,192.4,172.4z"></path> <path class="st1" d="M175.2,192.4c0,0.9-0.7,1.6-1.6,1.5s-1.6-0.7-1.5-1.6l0,0c0-0.8,0.6-1.5,1.4-1.5c0.1,0,0.1,0,0.2,0 c0.8,0,1.5,0.6,1.6,1.5C175.2,192.3,175.2,192.4,175.2,192.4z"></path> <path class="st1" d="M162.4,160.7c0,0.8-0.6,1.4-1.4,1.4c0,0-0.1,0-0.1,0c-0.8,0.1-1.5-0.5-1.6-1.2c0-0.1,0-0.1,0-0.2 c0-0.9,0.7-1.6,1.6-1.6C161.7,159.1,162.4,159.8,162.4,160.7C162.4,160.7,162.4,160.7,162.4,160.7L162.4,160.7z"></path> <path class="st1" d="M156.9,173.7c0,0.8-0.7,1.5-1.5,1.5c0,0,0,0-0.1,0c-0.8,0.1-1.6-0.6-1.6-1.4c0-0.1,0-0.1,0-0.2 c0-0.8,0.7-1.5,1.5-1.5c0,0,0.1,0,0.1,0C156.2,172.1,156.9,172.7,156.9,173.7C156.9,173.6,156.9,173.7,156.9,173.7z"></path> <path class="st1" d="M174.2,153.7c0.9,0.1,1.5,0.8,1.5,1.7s-0.8,1.5-1.7,1.5c-0.8,0-1.5-0.7-1.5-1.5c0,0,0,0,0-0.1 C172.5,154.4,173.3,153.7,174.2,153.7C174.2,153.7,174.2,153.7,174.2,153.7z"></path> <path class="st1" d="M160.7,185.3c0.9,0,1.5,0.7,1.5,1.6c0,0.9-0.7,1.5-1.6,1.5s-1.5-0.7-1.5-1.6 C159.1,185.9,159.9,185.2,160.7,185.3z"></path> <path class="st1" d="M187.1,159.3c0.8-0.1,1.5,0.5,1.5,1.3c0,0.1,0,0.1,0,0.2c0.1,0.8-0.6,1.5-1.4,1.6c0,0-0.1,0-0.1,0 c-0.8,0.1-1.6-0.6-1.6-1.4c0-0.1,0-0.1,0-0.2C185.6,160,186.2,159.3,187.1,159.3C187.1,159.3,187.1,159.3,187.1,159.3z"></path> <path class="st1" d="M185.3,187.3c-0.1-0.9,0.5-1.7,1.4-1.8c0.1,0,0.2,0,0.2,0c0.8,0,1.5,0.7,1.5,1.5c0,0,0,0.1,0,0.1 c0,0.9-0.7,1.6-1.6,1.6c0,0,0,0,0,0C185.9,188.6,185.3,188.1,185.3,187.3z"></path> </g> </g> </g> </svg> 